<svg xmlns="http://www.w3.org/2000/svg" viewBox="0 0 960 640" width="960" height="640">
  <defs>
    <style>
      text { font-family: Arial, sans-serif; }
    </style>
  </defs>

  <!-- Fondo -->
  <rect width="960" height="640" fill="#0d1117"/>

  <!-- TITULO -->
  <rect x="10" y="8" width="940" height="48" rx="6" fill="#161b22" stroke="#58a6ff" stroke-width="1.5"/>
  <text x="480" y="28" text-anchor="middle" fill="#58a6ff" font-size="14" font-weight="bold" font-family="Arial">SISTEMA MLOPS — UAV INDOOR NAVIGATION</text>
  <text x="480" y="46" text-anchor="middle" fill="#8b949e" font-size="10" font-family="Arial">Yachay Tech | Arquitectura Apollo 7 Capas | Jefferson Olalla | 2026 | Corrida C9: 4/6 KPIs</text>

  <!-- CAPA 1: DATA SOURCE -->
  <rect x="10" y="68" width="175" height="115" rx="6" fill="#161b22" stroke="#3fb950" stroke-width="1.5"/>
  <text x="97" y="86" text-anchor="middle" fill="#3fb950" font-size="10" font-weight="bold" font-family="Arial">CAPA 1 — DATA SOURCE</text>
  <rect x="18" y="93" width="159" height="26" rx="3" fill="#1a4731"/>
  <text x="97" y="107" text-anchor="middle" fill="#3fb950" font-size="9" font-family="Arial">Gazebo + PX4 (UAV sim)</text>
  <text x="97" y="117" text-anchor="middle" fill="#8b949e" font-size="8" font-family="Arial">HEAD: ee2950a | v8.0-O2</text>
  <rect x="18" y="124" width="159" height="26" rx="3" fill="#1a4731"/>
  <text x="97" y="138" text-anchor="middle" fill="#3fb950" font-size="9" font-family="Arial">Dataset pre-grabado</text>
  <text x="97" y="148" text-anchor="middle" fill="#8b949e" font-size="8" font-family="Arial">C1-C13 corridas reales</text>
  <text x="97" y="173" text-anchor="middle" fill="#8b949e" font-size="8" font-family="Arial">13 corridas | 7 fixes</text>

  <!-- Flecha 1 a 2 -->
  <line x1="185" y1="125" x2="208" y2="125" stroke="#58a6ff" stroke-width="1.5"/>
  <polygon points="208,121 216,125 208,129" fill="#58a6ff"/>

  <!-- CAPA 2: KAFKA -->
  <rect x="216" y="68" width="185" height="115" rx="6" fill="#161b22" stroke="#f0883e" stroke-width="1.5"/>
  <text x="308" y="86" text-anchor="middle" fill="#f0883e" font-size="10" font-weight="bold" font-family="Arial">CAPA 2 — KAFKA STREAMING</text>
  <rect x="224" y="93" width="169" height="20" rx="3" fill="#3d2400"/>
  <text x="308" y="107" text-anchor="middle" fill="#f0883e" font-size="9" font-family="Arial">uav.camera.frames (10fps)</text>
  <rect x="224" y="117" width="169" height="20" rx="3" fill="#3d2400"/>
  <text x="308" y="131" text-anchor="middle" fill="#f0883e" font-size="9" font-family="Arial">uav.imu.data (/mavros/imu)</text>
  <rect x="224" y="141" width="169" height="20" rx="3" fill="#3d2400"/>
  <text x="308" y="155" text-anchor="middle" fill="#f0883e" font-size="9" font-family="Arial">uav.cbf.metrics (KPI tesis)</text>
  <text x="308" y="175" text-anchor="middle" fill="#8b949e" font-size="8" font-family="Arial">Replica ROS2 topics Gazebo</text>

  <!-- Flecha 2 a 3 -->
  <line x1="401" y1="125" x2="424" y2="125" stroke="#58a6ff" stroke-width="1.5"/>
  <polygon points="424,121 432,125 424,129" fill="#58a6ff"/>

  <!-- CAPA 3: INFERENCE -->
  <rect x="432" y="68" width="185" height="115" rx="6" fill="#161b22" stroke="#58a6ff" stroke-width="1.5"/>
  <text x="524" y="86" text-anchor="middle" fill="#58a6ff" font-size="10" font-weight="bold" font-family="Arial">CAPA 3 — INFERENCE</text>
  <rect x="440" y="93" width="169" height="20" rx="3" fill="#1f3a6e"/>
  <text x="524" y="107" text-anchor="middle" fill="#58a6ff" font-size="9" font-family="Arial">Flask /predict → obstacle</text>
  <rect x="440" y="117" width="169" height="20" rx="3" fill="#1f3a6e"/>
  <text x="524" y="131" text-anchor="middle" fill="#58a6ff" font-size="9" font-family="Arial">Flask /metrics → Prometheus</text>
  <rect x="440" y="141" width="169" height="20" rx="3" fill="#1f3a6e"/>
  <text x="524" y="155" text-anchor="middle" fill="#58a6ff" font-size="9" font-family="Arial">ObstacleProxyModel</text>
  <text x="524" y="175" text-anchor="middle" fill="#8b949e" font-size="8" font-family="Arial">Proxy: YOLOv8-nano + Safe-PPO</text>

  <!-- Flecha 3 a 4 -->
  <line x1="617" y1="125" x2="640" y2="125" stroke="#58a6ff" stroke-width="1.5"/>
  <polygon points="640,121 648,125 640,129" fill="#58a6ff"/>

  <!-- CAPA 4: W&B -->
  <rect x="648" y="68" width="302" height="115" rx="6" fill="#161b22" stroke="#f85149" stroke-width="1.5"/>
  <text x="799" y="86" text-anchor="middle" fill="#f85149" font-size="10" font-weight="bold" font-family="Arial">CAPA 4 — W&amp;B MONITORING</text>
  <rect x="656" y="93" width="286" height="20" rx="3" fill="#3d1a1a"/>
  <text x="799" y="107" text-anchor="middle" fill="#f85149" font-size="9" font-family="Arial">Project: mlops-uav-indoor</text>
  <rect x="656" y="117" width="286" height="20" rx="3" fill="#3d1a1a"/>
  <text x="799" y="131" text-anchor="middle" fill="#f85149" font-size="9" font-family="Arial">KPIs: cbf=59 | jerk=9.7 | t_return=17.8s</text>
  <rect x="656" y="141" width="286" height="20" rx="3" fill="#3d1a1a"/>
  <text x="799" y="155" text-anchor="middle" fill="#f85149" font-size="9" font-family="Arial">best_model.pt | val_acc=1.0 | 6/6 KPIs</text>
  <text x="799" y="175" text-anchor="middle" fill="#8b949e" font-size="8" font-family="Arial">Referencia: Corrida C9 — 4/6 KPIs reales</text>

  <!-- CAPA 5: PROMETHEUS + GRAFANA -->
  <rect x="216" y="210" width="401" height="110" rx="6" fill="#161b22" stroke="#a371f7" stroke-width="1.5"/>
  <text x="416" y="228" text-anchor="middle" fill="#a371f7" font-size="10" font-weight="bold" font-family="Arial">CAPA 5 — PROMETHEUS + GRAFANA</text>
  <rect x="224" y="235" width="185" height="76" rx="4" fill="#231a35"/>
  <text x="316" y="251" text-anchor="middle" fill="#a371f7" font-size="9" font-weight="bold" font-family="Arial">Prometheus (scrape 5s)</text>
  <text x="316" y="265" text-anchor="middle" fill="#8b949e" font-size="8" font-family="Arial">uav_frames_total</text>
  <text x="316" y="278" text-anchor="middle" fill="#8b949e" font-size="8" font-family="Arial">uav_cbf_activations_total</text>
  <text x="316" y="291" text-anchor="middle" fill="#8b949e" font-size="8" font-family="Arial">uav_inference_latency_seconds</text>
  <text x="316" y="304" text-anchor="middle" fill="#8b949e" font-size="8" font-family="Arial">localhost:9090</text>
  <rect x="416" y="235" width="193" height="76" rx="4" fill="#231a35"/>
  <text x="512" y="251" text-anchor="middle" fill="#a371f7" font-size="9" font-weight="bold" font-family="Arial">Grafana Dashboard</text>
  <text x="512" y="265" text-anchor="middle" fill="#8b949e" font-size="8" font-family="Arial">Panel 1: Frames procesados</text>
  <text x="512" y="278" text-anchor="middle" fill="#8b949e" font-size="8" font-family="Arial">Panel 2: Latencia inferencia</text>
  <text x="512" y="291" text-anchor="middle" fill="#8b949e" font-size="8" font-family="Arial">Panel 3: CBF activaciones</text>
  <text x="512" y="304" text-anchor="middle" fill="#8b949e" font-size="8" font-family="Arial">localhost:3000</text>

  <!-- Flecha 3 a 5 (vertical) -->
  <line x1="524" y1="183" x2="524" y2="208" stroke="#a371f7" stroke-width="1.5" stroke-dasharray="4,3"/>
  <polygon points="520,208 524,216 528,208" fill="#a371f7"/>

  <!-- CAPA 6: KUBERNETES -->
  <rect x="10" y="210" width="198" height="110" rx="6" fill="#161b22" stroke="#39d353" stroke-width="1.5"/>
  <text x="109" y="228" text-anchor="middle" fill="#39d353" font-size="10" font-weight="bold" font-family="Arial">CAPA 6 — KUBERNETES</text>
  <rect x="18" y="235" width="182" height="22" rx="3" fill="#1a3a1a"/>
  <text x="109" y="250" text-anchor="middle" fill="#39d353" font-size="9" font-family="Arial">Deployment 2 replicas base</text>
  <rect x="18" y="261" width="182" height="22" rx="3" fill="#1a3a1a"/>
  <text x="109" y="276" text-anchor="middle" fill="#39d353" font-size="9" font-family="Arial">HPA: 1 a 5 replicas (CENACE)</text>
  <rect x="18" y="287" width="182" height="22" rx="3" fill="#1a3a1a"/>
  <text x="109" y="302" text-anchor="middle" fill="#39d353" font-size="9" font-family="Arial">Service NodePort :30500</text>

  <!-- Flecha K8s a 3 (vertical punteada) -->
  <line x1="109" y1="183" x2="109" y2="208" stroke="#39d353" stroke-width="1.5" stroke-dasharray="4,3"/>
  <polygon points="105,208 109,216 113,208" fill="#39d353"/>

  <!-- CAPA 7: CI/CD -->
  <rect x="10" y="348" width="940" height="82" rx="6" fill="#161b22" stroke="#ffa657" stroke-width="1.5"/>
  <text x="480" y="367" text-anchor="middle" fill="#ffa657" font-size="10" font-weight="bold" font-family="Arial">CAPA 7 — CI/CD PIPELINE (GitHub Actions)</text>
  <rect x="18" y="374" width="170" height="46" rx="4" fill="#3d2800"/>
  <text x="103" y="392" text-anchor="middle" fill="#ffa657" font-size="9" font-weight="bold" font-family="Arial">1 Lint</text>
  <text x="103" y="408" text-anchor="middle" fill="#8b949e" font-size="8" font-family="Arial">flake8 check</text>
  <rect x="200" y="374" width="170" height="46" rx="4" fill="#3d2800"/>
  <text x="285" y="392" text-anchor="middle" fill="#ffa657" font-size="9" font-weight="bold" font-family="Arial">2 Test /predict</text>
  <text x="285" y="408" text-anchor="middle" fill="#8b949e" font-size="8" font-family="Arial">obstacle detection</text>
  <rect x="382" y="374" width="170" height="46" rx="4" fill="#3d2800"/>
  <text x="467" y="392" text-anchor="middle" fill="#ffa657" font-size="9" font-weight="bold" font-family="Arial">3 Test /metrics</text>
  <text x="467" y="408" text-anchor="middle" fill="#8b949e" font-size="8" font-family="Arial">prometheus format</text>
  <rect x="564" y="374" width="170" height="46" rx="4" fill="#3d2800"/>
  <text x="649" y="392" text-anchor="middle" fill="#ffa657" font-size="9" font-weight="bold" font-family="Arial">4 Docker Build</text>
  <text x="649" y="408" text-anchor="middle" fill="#8b949e" font-size="8" font-family="Arial">uav-inference image</text>
  <rect x="746" y="374" width="196" height="46" rx="4" fill="#3d2800"/>
  <text x="844" y="392" text-anchor="middle" fill="#ffa657" font-size="9" font-weight="bold" font-family="Arial">5 Health Check</text>
  <text x="844" y="408" text-anchor="middle" fill="#8b949e" font-size="8" font-family="Arial">verify /health OK</text>
  <!-- Flechas CI -->
  <line x1="188" y1="397" x2="198" y2="397" stroke="#ffa657" stroke-width="1"/>
  <polygon points="196,393 204,397 196,401" fill="#ffa657"/>
  <line x1="370" y1="397" x2="380" y2="397" stroke="#ffa657" stroke-width="1"/>
  <polygon points="378,393 386,397 378,401" fill="#ffa657"/>
  <line x1="552" y1="397" x2="562" y2="397" stroke="#ffa657" stroke-width="1"/>
  <polygon points="560,393 568,397 560,401" fill="#ffa657"/>
  <line x1="734" y1="397" x2="744" y2="397" stroke="#ffa657" stroke-width="1"/>
  <polygon points="742,393 750,397 742,401" fill="#ffa657"/>

  <!-- IMPACTO SOCIAL -->
  <rect x="10" y="450" width="940" height="56" rx="6" fill="#161b22" stroke="#e3b341" stroke-width="1.5"/>
  <text x="480" y="470" text-anchor="middle" fill="#e3b341" font-size="11" font-weight="bold" font-family="Arial">IMPACTO SOCIAL — CENACE Ecuador</text>
  <text x="480" y="487" text-anchor="middle" fill="#8b949e" font-size="9" font-family="Arial">Inspeccion autonoma subestaciones electricas | Apagones 2024-2026 | UAV indoor GPS-denied</text>
  <text x="480" y="500" text-anchor="middle" fill="#8b949e" font-size="9" font-family="Arial">Reduccion: 4 horas (manual) a menos de 20 minutos | CBF: 1405 activaciones (v7.27) a 59 (C9)</text>

  <!-- MAPEO APOLLO -->
  <rect x="10" y="524" width="940" height="106" rx="6" fill="#161b22" stroke="#30363d" stroke-width="1"/>
  <text x="480" y="542" text-anchor="middle" fill="#c9d1d9" font-size="10" font-weight="bold" font-family="Arial">MAPEO APOLLO a UAV INDOOR (Contribucion Original)</text>
  <!-- Columnas -->
  <text x="130" y="560" text-anchor="middle" fill="#8b949e" font-size="8" font-family="Arial">GPS + HD Map</text>
  <text x="130" y="572" text-anchor="middle" fill="#58a6ff" font-size="8" font-family="Arial">VIO + EKF2</text>
  <text x="290" y="560" text-anchor="middle" fill="#8b949e" font-size="8" font-family="Arial">Lane Detection</text>
  <text x="290" y="572" text-anchor="middle" fill="#58a6ff" font-size="8" font-family="Arial">Corredor Z bounds</text>
  <text x="450" y="560" text-anchor="middle" fill="#8b949e" font-size="8" font-family="Arial">EM Planner MPC</text>
  <text x="450" y="572" text-anchor="middle" fill="#58a6ff" font-size="8" font-family="Arial">N-MPC Acados</text>
  <text x="620" y="560" text-anchor="middle" fill="#8b949e" font-size="8" font-family="Arial">Safety Fallback</text>
  <text x="620" y="572" text-anchor="middle" fill="#58a6ff" font-size="8" font-family="Arial">CBF + Confidence Gate</text>
  <text x="820" y="560" text-anchor="middle" fill="#8b949e" font-size="8" font-family="Arial">No existe en Apollo</text>
  <text x="820" y="572" text-anchor="middle" fill="#3fb950" font-size="8" font-family="Arial">MLOps: Prometheus+W&amp;B+K8s</text>
  <!-- Lineas separadoras -->
  <line x1="210" y1="548" x2="210" y2="616" stroke="#30363d" stroke-width="1"/>
  <line x1="370" y1="548" x2="370" y2="616" stroke="#30363d" stroke-width="1"/>
  <line x1="530" y1="548" x2="530" y2="616" stroke="#30363d" stroke-width="1"/>
  <line x1="710" y1="548" x2="710" y2="616" stroke="#30363d" stroke-width="1"/>
  <!-- Evidencia corridas -->
  <text x="130" y="590" text-anchor="middle" fill="#8b949e" font-size="7" font-family="Arial">commit: ee2950a</text>
  <text x="290" y="590" text-anchor="middle" fill="#8b949e" font-size="7" font-family="Arial">v8.0-F: z -0.30/-2.80m</text>
  <text x="450" y="590" text-anchor="middle" fill="#8b949e" font-size="7" font-family="Arial">N=20, dt=0.05s</text>
  <text x="620" y="590" text-anchor="middle" fill="#8b949e" font-size="7" font-family="Arial">r_safe=0.45m, alpha_z=1.0</text>
  <text x="820" y="590" text-anchor="middle" fill="#8b949e" font-size="7" font-family="Arial">Contribucion original</text>
  <text x="130" y="602" text-anchor="middle" fill="#8b949e" font-size="7" font-family="Arial">tag: v8.0-O2</text>
  <text x="290" y="602" text-anchor="middle" fill="#8b949e" font-size="7" font-family="Arial">fix: zona conflicto 0m</text>
  <text x="450" y="602" text-anchor="middle" fill="#8b949e" font-size="7" font-family="Arial">C9: t_return=17.8s</text>
  <text x="620" y="602" text-anchor="middle" fill="#8b949e" font-size="7" font-family="Arial">C9: cbf_total=59</text>
  <text x="820" y="602" text-anchor="middle" fill="#8b949e" font-size="7" font-family="Arial">ICRA/IROS 2024-2025</text>
</svg>
