<svg viewBox="0 0 900 620" xmlns="http://www.w3.org/2000/svg" font-family="monospace,sans-serif">
  <!-- Fondo -->
  <rect width="900" height="620" fill="#0d1117"/>

  <!-- Título -->
  <rect x="10" y="10" width="880" height="50" rx="8" fill="#161b22" stroke="#58a6ff" stroke-width="1.5"/>
  <text x="450" y="32" text-anchor="middle" fill="#58a6ff" font-size="14" font-weight="bold">SISTEMA MLOPS — UAV INDOOR NAVIGATION</text>
  <text x="450" y="50" text-anchor="middle" fill="#8b949e" font-size="11">Yachay Tech | Adaptación Arquitectura Apollo | Jefferson Olalla | 2026</text>

  <!-- CAPA 1: DATA SOURCE -->
  <rect x="10" y="75" width="180" height="120" rx="6" fill="#161b22" stroke="#3fb950" stroke-width="1.5"/>
  <text x="100" y="95" text-anchor="middle" fill="#3fb950" font-size="11" font-weight="bold">CAPA 1</text>
  <text x="100" y="110" text-anchor="middle" fill="#c9d1d9" font-size="10">DATA SOURCE</text>
  <rect x="20" y="118" width="160" height="28" rx="4" fill="#1a4731"/>
  <text x="100" y="132" text-anchor="middle" fill="#3fb950" font-size="9">Gazebo + PX4 (UAV sim)</text>
  <text x="100" y="143" text-anchor="middle" fill="#8b949e" font-size="8">≡ /camera/image_raw</text>
  <rect x="20" y="152" width="160" height="28" rx="4" fill="#1a4731"/>
  <text x="100" y="166" text-anchor="middle" fill="#3fb950" font-size="9">Dataset pre-grabado</text>
  <text x="100" y="177" text-anchor="middle" fill="#8b949e" font-size="8">Demo sin Gazebo</text>

  <!-- Flecha 1→2 -->
  <line x1="190" y1="135" x2="225" y2="135" stroke="#58a6ff" stroke-width="1.5" marker-end="url(#arrow)"/>

  <!-- CAPA 2: KAFKA -->
  <rect x="225" y="75" width="190" height="120" rx="6" fill="#161b22" stroke="#f0883e" stroke-width="1.5"/>
  <text x="320" y="95" text-anchor="middle" fill="#f0883e" font-size="11" font-weight="bold">CAPA 2</text>
  <text x="320" y="110" text-anchor="middle" fill="#c9d1d9" font-size="10">KAFKA STREAMING</text>
  <rect x="235" y="118" width="170" height="18" rx="3" fill="#3d2400"/>
  <text x="320" y="131" text-anchor="middle" fill="#f0883e" font-size="9">uav.camera.frames (10fps)</text>
  <rect x="235" y="140" width="170" height="18" rx="3" fill="#3d2400"/>
  <text x="320" y="153" text-anchor="middle" fill="#f0883e" font-size="9">uav.imu.data</text>
  <rect x="235" y="162" width="170" height="18" rx="3" fill="#3d2400"/>
  <text x="320" y="175" text-anchor="middle" fill="#f0883e" font-size="9">uav.cbf.metrics (KPI tesis)</text>

  <!-- Flecha 2→3 -->
  <line x1="415" y1="135" x2="450" y2="135" stroke="#58a6ff" stroke-width="1.5" marker-end="url(#arrow)"/>

  <!-- CAPA 3: INFERENCE -->
  <rect x="450" y="75" width="190" height="120" rx="6" fill="#161b22" stroke="#58a6ff" stroke-width="1.5"/>
  <text x="545" y="95" text-anchor="middle" fill="#58a6ff" font-size="11" font-weight="bold">CAPA 3</text>
  <text x="545" y="110" text-anchor="middle" fill="#c9d1d9" font-size="10">INFERENCE SERVICE</text>
  <rect x="460" y="118" width="170" height="18" rx="3" fill="#1f3a6e"/>
  <text x="545" y="131" text-anchor="middle" fill="#58a6ff" font-size="9">Flask /predict → obstacle</text>
  <rect x="460" y="140" width="170" height="18" rx="3" fill="#1f3a6e"/>
  <text x="545" y="153" text-anchor="middle" fill="#58a6ff" font-size="9">Flask /metrics → Prometheus</text>
  <rect x="460" y="162" width="170" height="18" rx="3" fill="#1f3a6e"/>
  <text x="545" y="175" text-anchor="middle" fill="#58a6ff" font-size="9">ObstacleProxyModel</text>

  <!-- Flecha 3→4 -->
  <line x1="640" y1="135" x2="675" y2="135" stroke="#58a6ff" stroke-width="1.5" marker-end="url(#arrow)"/>

  <!-- CAPA 4: W&B -->
  <rect x="675" y="75" width="215" height="120" rx="6" fill="#161b22" stroke="#f85149" stroke-width="1.5"/>
  <text x="782" y="95" text-anchor="middle" fill="#f85149" font-size="11" font-weight="bold">CAPA 4</text>
  <text x="782" y="110" text-anchor="middle" fill="#c9d1d9" font-size="10">W&B MONITORING</text>
  <rect x="685" y="118" width="195" height="18" rx="3" fill="#3d1a1a"/>
  <text x="782" y="131" text-anchor="middle" fill="#f85149" font-size="9">mlops-uav-indoor project</text>
  <rect x="685" y="140" width="195" height="18" rx="3" fill="#3d1a1a"/>
  <text x="782" y="153" text-anchor="middle" fill="#f85149" font-size="9">KPIs: cbf, jerk, t_return, f1</text>
  <rect x="685" y="162" width="195" height="18" rx="3" fill="#3d1a1a"/>
  <text x="782" y="175" text-anchor="middle" fill="#f85149" font-size="9">best_model.pt artifact (acc=1.0)</text>

  <!-- CAPA 5: PROMETHEUS+GRAFANA -->
  <rect x="225" y="230" width="415" height="120" rx="6" fill="#161b22" stroke="#a371f7" stroke-width="1.5"/>
  <text x="432" y="250" text-anchor="middle" fill="#a371f7" font-size="11" font-weight="bold">CAPA 5 — PROMETHEUS + GRAFANA</text>
  <rect x="235" y="258" width="190" height="80" rx="4" fill="#231a35"/>
  <text x="330" y="274" text-anchor="middle" fill="#a371f7" font-size="9" font-weight="bold">Prometheus (scrape 5s)</text>
  <text x="330" y="289" text-anchor="middle" fill="#8b949e" font-size="8">uav_frames_total</text>
  <text x="330" y="302" text-anchor="middle" fill="#8b949e" font-size="8">uav_inference_latency_seconds</text>
  <text x="330" y="315" text-anchor="middle" fill="#8b949e" font-size="8">uav_cbf_activations_total</text>
  <text x="330" y="328" text-anchor="middle" fill="#8b949e" font-size="8">uav_obstacle_detected_total</text>
  <rect x="435" y="258" width="195" height="80" rx="4" fill="#231a35"/>
  <text x="532" y="274" text-anchor="middle" fill="#a371f7" font-size="9" font-weight="bold">Grafana Dashboard</text>
  <text x="532" y="289" text-anchor="middle" fill="#8b949e" font-size="8">Panel 1: Frames procesados</text>
  <text x="532" y="302" text-anchor="middle" fill="#8b949e" font-size="8">Panel 2: Latencia inferencia</text>
  <text x="532" y="315" text-anchor="middle" fill="#8b949e" font-size="8">Panel 3: CBF activaciones</text>
  <text x="532" y="328" text-anchor="middle" fill="#8b949e" font-size="8">localhost:3000</text>

  <!-- Flecha 3→5 -->
  <line x1="545" y1="195" x2="545" y2="228" stroke="#a371f7" stroke-width="1.5" stroke-dasharray="4,3" marker-end="url(#arrow2)"/>

  <!-- CAPA 6: KUBERNETES -->
  <rect x="10" y="230" width="205" height="120" rx="6" fill="#161b22" stroke="#39d353" stroke-width="1.5"/>
  <text x="112" y="250" text-anchor="middle" fill="#39d353" font-size="11" font-weight="bold">CAPA 6</text>
  <text x="112" y="265" text-anchor="middle" fill="#c9d1d9" font-size="10">KUBERNETES (Minikube)</text>
  <rect x="20" y="273" width="185" height="18" rx="3" fill="#1a3a1a"/>
  <text x="112" y="286" text-anchor="middle" fill="#39d353" font-size="9">Deployment 2 réplicas</text>
  <rect x="20" y="295" width="185" height="18" rx="3" fill="#1a3a1a"/>
  <text x="112" y="308" text-anchor="middle" fill="#39d353" font-size="9">HPA: 1 → 5 réplicas</text>
  <rect x="20" y="317" width="185" height="18" rx="3" fill="#1a3a1a"/>
  <text x="112" y="330" text-anchor="middle" fill="#39d353" font-size="9">Service NodePort :30500</text>

  <!-- CAPA 7: CI/CD -->
  <rect x="10" y="390" width="880" height="90" rx="6" fill="#161b22" stroke="#ffa657" stroke-width="1.5"/>
  <text x="450" y="412" text-anchor="middle" fill="#ffa657" font-size="11" font-weight="bold">CAPA 7 — CI/CD PIPELINE (GitHub Actions)</text>
  <rect x="20" y="420" width="130" height="45" rx="4" fill="#3d2800"/>
  <text x="85" y="438" text-anchor="middle" fill="#ffa657" font-size="9" font-weight="bold">① Lint</text>
  <text x="85" y="452" text-anchor="middle" fill="#8b949e" font-size="8">flake8 check</text>
  <rect x="165" y="420" width="160" height="45" rx="4" fill="#3d2800"/>
  <text x="245" y="438" text-anchor="middle" fill="#ffa657" font-size="9" font-weight="bold">② Test /predict</text>
  <text x="245" y="452" text-anchor="middle" fill="#8b949e" font-size="8">obstacle detection test</text>
  <rect x="340" y="420" width="160" height="45" rx="4" fill="#3d2800"/>
  <text x="420" y="438" text-anchor="middle" fill="#ffa657" font-size="9" font-weight="bold">③ Test /metrics</text>
  <text x="420" y="452" text-anchor="middle" fill="#8b949e" font-size="8">prometheus format test</text>
  <rect x="515" y="420" width="160" height="45" rx="4" fill="#3d2800"/>
  <text x="595" y="438" text-anchor="middle" fill="#ffa657" font-size="9" font-weight="bold">④ Docker Build</text>
  <text x="595" y="452" text-anchor="middle" fill="#8b949e" font-size="8">uav-inference image</text>
  <rect x="690" y="420" width="190" height="45" rx="4" fill="#3d2800"/>
  <text x="785" y="438" text-anchor="middle" fill="#ffa657" font-size="9" font-weight="bold">⑤ Push DockerHub</text>
  <text x="785" y="452" text-anchor="middle" fill="#8b949e" font-size="8">on push to main</text>
  <!-- Flechas CI -->
  <line x1="150" y1="442" x2="163" y2="442" stroke="#ffa657" stroke-width="1" marker-end="url(#arrow3)"/>
  <line x1="325" y1="442" x2="338" y2="442" stroke="#ffa657" stroke-width="1" marker-end="url(#arrow3)"/>
  <line x1="500" y1="442" x2="513" y2="442" stroke="#ffa657" stroke-width="1" marker-end="url(#arrow3)"/>
  <line x1="675" y1="442" x2="688" y2="442" stroke="#ffa657" stroke-width="1" marker-end="url(#arrow3)"/>

  <!-- IMPACTO SOCIAL -->
  <rect x="10" y="500" width="880" height="60" rx="6" fill="#161b22" stroke="#e3b341" stroke-width="1.5"/>
  <text x="450" y="522" text-anchor="middle" fill="#e3b341" font-size="11" font-weight="bold">IMPACTO SOCIAL — CENACE Ecuador</text>
  <text x="450" y="540" text-anchor="middle" fill="#8b949e" font-size="10">Inspección autónoma de subestaciones eléctricas | Apagones 2024-2026 | UAV indoor GPS-denied</text>
  <text x="450" y="554" text-anchor="middle" fill="#8b949e" font-size="9">Corrida C9: 4/6 KPIs | branch v8.0-research-freeze-20Abr2026 | commit ee2950a</text>

  <!-- Flechas feedback -->
  <line x1="112" y1="350" x2="112" y2="388" stroke="#39d353" stroke-width="1.5" stroke-dasharray="4,3" marker-end="url(#arrow4)"/>
  <line x1="450" y1="350" x2="450" y2="388" stroke="#a371f7" stroke-width="1.5" stroke-dasharray="4,3" marker-end="url(#arrow4)"/>

  <!-- Definición de flechas -->
  <defs>
    <marker id="arrow" markerWidth="8" markerHeight="8" refX="6" refY="3" orient="auto">
      <path d="M0,0 L0,6 L8,3 z" fill="#58a6ff"/>
    </marker>
    <marker id="arrow2" markerWidth="8" markerHeight="8" refX="6" refY="3" orient="auto">
      <path d="M0,0 L0,6 L8,3 z" fill="#a371f7"/>
    </marker>
    <marker id="arrow3" markerWidth="8" markerHeight="8" refX="6" refY="3" orient="auto">
      <path d="M0,0 L0,6 L8,3 z" fill="#ffa657"/>
    </marker>
    <marker id="arrow4" markerWidth="8" markerHeight="8" refX="6" refY="3" orient="auto">
      <path d="M0,0 L0,6 L8,3 z" fill="#8b949e"/>
    </marker>
  </defs>
</svg>
